<?xml version="1.0" encoding="UTF-8" standalone="no"?>
<svg
   width="96"
   height="80"
   viewBox="0 0 96 80"
   fill="none"
   version="1.1"
   id="svg9"
   sodipodi:docname="AV_logo.svg"
   inkscape:version="1.4.3 (0d15f75, 2025-12-25)"
   xmlns:inkscape="http://www.inkscape.org/namespaces/inkscape"
   xmlns:sodipodi="http://sodipodi.sourceforge.net/DTD/sodipodi-0.dtd"
   xmlns="http://www.w3.org/2000/svg"
   xmlns:svg="http://www.w3.org/2000/svg">
  <sodipodi:namedview
     id="namedview9"
     pagecolor="#ffffff"
     bordercolor="#000000"
     borderopacity="0.25"
     inkscape:showpageshadow="2"
     inkscape:pageopacity="0.0"
     inkscape:pagecheckerboard="0"
     inkscape:deskcolor="#d1d1d1"
     inkscape:zoom="9.1666667"
     inkscape:cx="59.181818"
     inkscape:cy="39.981818"
     inkscape:window-width="2560"
     inkscape:window-height="1382"
     inkscape:window-x="2560"
     inkscape:window-y="30"
     inkscape:window-maximized="1"
     inkscape:current-layer="g9" />
  <g
     clip-path="url(#clip0_760_1818)"
     id="g9">
    <path
       fill-rule="evenodd"
       clip-rule="evenodd"
       d="M48.3874 25.3846L49.246 28.0288L52.0416 28.0227L49.7763 29.6509L50.6457 32.2913L48.3874 30.6533L46.1291 32.2913L46.9985 29.6509L44.7329 28.0227L47.5288 28.0288L48.3874 25.3846ZM60.773 31.0832L59.9152 28.439L59.0566 31.0832L56.2602 31.0771L58.5263 32.7052L57.6561 35.3456L59.9152 33.7076L62.1735 35.3456L61.3041 32.7052L63.5694 31.0771L60.773 31.0832ZM68.3686 36.8383L69.2272 39.4826L72.0228 39.4765L69.7575 41.1046L70.6269 43.745L68.3686 42.107L66.1103 43.745L66.9797 41.1046L64.7144 39.4765L67.51 39.4826L68.3686 36.8383ZM72.3007 50.9363L71.4429 48.292L70.5843 50.9363L67.7879 50.9302L70.054 52.5583L69.1838 55.1987L71.4429 53.5608L73.7012 55.1987L72.831 52.5583L75.0971 50.9302L72.3007 50.9363ZM69.2272 62.39L68.3686 59.7458L67.51 62.39L64.7144 62.3839L66.9797 64.012L66.1103 66.6524L68.3686 65.0145L70.6269 66.6524L69.7575 64.012L72.0228 62.3839L69.2272 62.39ZM37.7181 31.0832L36.8598 28.439L36.0016 31.0832L33.2053 31.0771L35.4711 32.7052L34.6012 35.3456L36.8598 33.7076L39.1184 35.3456L38.2485 32.7052L40.5142 31.0771L37.7181 31.0832ZM28.4063 36.8383L29.2645 39.4826L32.0607 39.4765L29.7949 41.1046L30.6648 43.745L28.4063 42.107L26.1476 43.745L27.0175 41.1046L24.7517 39.4765L27.548 39.4826L28.4063 36.8383ZM26.1904 50.9363L25.3322 48.292L24.474 50.9363L21.6777 50.9302L23.9435 52.5583L23.0736 55.1987L25.3322 53.5608L27.5908 55.1987L26.7209 52.5583L28.9867 50.9302L26.1904 50.9363ZM28.4063 59.7458L29.2645 62.39L32.0607 62.3839L29.7949 64.012L30.6648 66.6524L28.4063 65.0145L26.1476 66.6524L27.0175 64.012L24.7517 62.3839L27.548 62.39L28.4063 59.7458ZM37.7181 70.7893L36.8598 68.1454L36.0016 70.7893L33.2053 70.7831L35.4711 72.4116L34.6012 75.0516L36.8598 73.4139L39.1184 75.0516L38.2485 72.4116L40.5142 70.7831L37.7181 70.7893ZM59.9152 68.1454L60.773 70.7893L63.5694 70.7831L61.3041 72.4116L62.1735 75.0516L59.9152 73.4139L57.6561 75.0516L58.5263 72.4116L56.2602 70.7831L59.0566 70.7893L59.9152 68.1454ZM49.246 73.8439L48.3874 71.1993L47.5288 73.8439L44.7329 73.8377L46.9985 75.4654L46.1291 78.1062L48.3874 76.4685L50.6457 78.1062L49.7763 75.4654L52.0416 73.8377L49.246 73.8439Z"
       fill="#FFCC00"
       id="path1" />
    <path
       d="M68.7988 1.59263L5.98251 18.3163C2.67846 19.196 0.717691 22.5703 1.60301 25.8532L10.4196 58.5461C11.3049 61.829 14.701 63.7772 18.0051 62.8975L80.8214 46.1738C84.1255 45.2942 86.0862 41.9198 85.2009 38.6369L76.3844 5.94406C75.499 2.66119 72.1029 0.712993 68.7988 1.59263Z"
       fill="#9FB5EA"
       id="path2" />
    <path
       d="M87.4841 18.4615H6.96796C3.54736 18.4615 0.774414 21.2167 0.774414 24.6154V73.8462C0.774414 77.2448 3.54736 80 6.96796 80H87.4841C90.9047 80 93.6776 77.2448 93.6776 73.8462V24.6154C93.6776 21.2167 90.9047 18.4615 87.4841 18.4615Z"
       fill="#003399"
       id="path3" />
    <path
       d="M77.4189 49.2308C77.4189 44.1328 81.5787 40 86.7093 40H94.6231C95.3833 40 95.9996 40.6122 95.9996 41.3675V57.094C95.9996 57.8493 95.3833 58.4615 94.6231 58.4615H86.7093C81.5787 58.4615 77.4189 54.3288 77.4189 49.2308Z"
       fill="#1544C5"
       id="path7" />
    <path
       opacity="0.35"
       d="M86.7565 53.7837C89.3219 53.7837 91.4017 51.7174 91.4017 49.1684C91.4017 46.6194 89.3219 44.553 86.7565 44.553C84.191 44.553 82.1113 46.6194 82.1113 49.1684C82.1113 51.7174 84.191 53.7837 86.7565 53.7837Z"
       fill="white"
       id="path8" />
    <path
       fill-rule="evenodd"
       clip-rule="evenodd"
       d="M45.0599 25.3846L45.8117 27.6994L48.2597 27.6941L46.2762 29.1194L47.0372 31.431L45.0599 29.997L43.083 31.431L43.8445 29.1194L41.861 27.6941L44.3089 27.6994L45.0599 25.3846ZM55.9033 30.3733L55.1515 28.0586L54.4006 30.3733L51.9526 30.368L53.9361 31.7933L53.1743 34.1048L55.1515 32.6709L57.1288 34.1048L56.3678 31.7933L58.3513 30.368L55.9033 30.3733ZM62.5521 35.4114L63.3038 37.7262L65.7518 37.7209L63.7683 39.1462L64.5293 41.4577L62.5521 40.0238L60.5748 41.4577L61.3366 39.1462L59.3531 37.7209L61.8011 37.7262L62.5521 35.4114ZM65.9949 47.7529L65.2432 45.4382L64.4922 47.7529L62.0442 47.7476L64.0277 49.1729L63.2659 51.4845L65.2432 50.0506L67.2204 51.4845L66.4586 49.1729L68.4429 47.7476L65.9949 47.7529ZM63.3038 57.7804L62.5521 55.4656L61.8011 57.7804L59.3531 57.7751L61.3366 59.2004L60.5748 61.5119L62.5521 60.078L64.5293 61.5119L63.7683 59.2004L65.7518 57.7751L63.3038 57.7804ZM35.7199 30.3733L34.9686 28.0586L34.2173 30.3733L31.7694 30.368L33.7529 31.7933L32.9913 34.1048L34.9686 32.6709L36.9458 34.1048L36.1843 31.7933L38.1678 30.368L35.7199 30.3733ZM27.5681 35.4114L28.3195 37.7262L30.7673 37.7209L28.7838 39.1462L29.5453 41.4577L27.5681 40.0238L25.5909 41.4577L26.3524 39.1462L24.3689 37.7209L26.8168 37.7262L27.5681 35.4114ZM25.6283 47.7529L24.8769 45.4382L24.1256 47.7529L21.6777 47.7476L23.6612 49.1729L22.8997 51.4845L24.8769 50.0506L26.8541 51.4845L26.0926 49.1729L28.0762 47.7476L25.6283 47.7529ZM27.5681 55.4656L28.3195 57.7804L30.7673 57.7751L28.7838 59.2004L29.5453 61.5119L27.5681 60.078L25.5909 61.5119L26.3524 59.2004L24.3689 57.7751L26.8168 57.7804L27.5681 55.4656ZM35.7199 65.1333L34.9686 62.8185L34.2173 65.1333L31.7694 65.1279L33.7529 66.5533L32.9913 68.8646L34.9686 67.4309L36.9458 68.8646L36.1843 66.5533L38.1678 65.1279L35.7199 65.1333ZM55.1515 62.8185L55.9033 65.1333L58.3513 65.1279L56.3678 66.5533L57.1288 68.8646L55.1515 67.4309L53.1743 68.8646L53.9361 66.5533L51.9526 65.1279L54.4006 65.1333L55.1515 62.8185ZM45.8117 67.8069L45.0599 65.4924L44.3089 67.8069L41.861 67.8016L43.8445 69.227L43.083 71.5385L45.0599 70.1046L47.0372 71.5385L46.2762 69.227L48.2597 67.8016L45.8117 67.8069Z"
       fill="#FFCC00"
       id="path9" />
    <text
       xml:space="preserve"
       style="font-weight:bold;font-size:5.33333px;font-family:sans-serif;-inkscape-font-specification:'sans-serif Bold';text-align:center;writing-mode:lr-tb;direction:ltr;text-anchor:middle;fill:#fffbfb"
       x="45.099537"
       y="48.327274"
       id="text9"><tspan
         sodipodi:role="line"
         id="tspan9"
         x="45.099537"
         y="48.327274"
         style="font-size:5.33333px">Age</tspan><tspan
         sodipodi:role="line"
         x="45.099537"
         y="54.993938"
         id="tspan10"
         style="font-size:5.33333px">Verification</tspan></text>
  </g>
  <defs
     id="defs9">
    <clipPath
       id="clip0_760_1818">
      <rect
         width="96"
         height="80"
         fill="white"
         id="rect9" />
    </clipPath>
  </defs>
</svg>
