<svg width="96" height="80" viewBox="0 0 96 80" fill="none" xmlns="http://www.w3.org/2000/svg">
<g clip-path="url(#clip0_760_1818)">
<path fill-rule="evenodd" clip-rule="evenodd" d="M48.3874 25.3846L49.246 28.0288L52.0416 28.0227L49.7763 29.6509L50.6457 32.2913L48.3874 30.6533L46.1291 32.2913L46.9985 29.6509L44.7329 28.0227L47.5288 28.0288L48.3874 25.3846ZM60.773 31.0832L59.9152 28.439L59.0566 31.0832L56.2602 31.0771L58.5263 32.7052L57.6561 35.3456L59.9152 33.7076L62.1735 35.3456L61.3041 32.7052L63.5694 31.0771L60.773 31.0832ZM68.3686 36.8383L69.2272 39.4826L72.0228 39.4765L69.7575 41.1046L70.6269 43.745L68.3686 42.107L66.1103 43.745L66.9797 41.1046L64.7144 39.4765L67.51 39.4826L68.3686 36.8383ZM72.3007 50.9363L71.4429 48.292L70.5843 50.9363L67.7879 50.9302L70.054 52.5583L69.1838 55.1987L71.4429 53.5608L73.7012 55.1987L72.831 52.5583L75.0971 50.9302L72.3007 50.9363ZM69.2272 62.39L68.3686 59.7458L67.51 62.39L64.7144 62.3839L66.9797 64.012L66.1103 66.6524L68.3686 65.0145L70.6269 66.6524L69.7575 64.012L72.0228 62.3839L69.2272 62.39ZM37.7181 31.0832L36.8598 28.439L36.0016 31.0832L33.2053 31.0771L35.4711 32.7052L34.6012 35.3456L36.8598 33.7076L39.1184 35.3456L38.2485 32.7052L40.5142 31.0771L37.7181 31.0832ZM28.4063 36.8383L29.2645 39.4826L32.0607 39.4765L29.7949 41.1046L30.6648 43.745L28.4063 42.107L26.1476 43.745L27.0175 41.1046L24.7517 39.4765L27.548 39.4826L28.4063 36.8383ZM26.1904 50.9363L25.3322 48.292L24.474 50.9363L21.6777 50.9302L23.9435 52.5583L23.0736 55.1987L25.3322 53.5608L27.5908 55.1987L26.7209 52.5583L28.9867 50.9302L26.1904 50.9363ZM28.4063 59.7458L29.2645 62.39L32.0607 62.3839L29.7949 64.012L30.6648 66.6524L28.4063 65.0145L26.1476 66.6524L27.0175 64.012L24.7517 62.3839L27.548 62.39L28.4063 59.7458ZM37.7181 70.7893L36.8598 68.1454L36.0016 70.7893L33.2053 70.7831L35.4711 72.4116L34.6012 75.0516L36.8598 73.4139L39.1184 75.0516L38.2485 72.4116L40.5142 70.7831L37.7181 70.7893ZM59.9152 68.1454L60.773 70.7893L63.5694 70.7831L61.3041 72.4116L62.1735 75.0516L59.9152 73.4139L57.6561 75.0516L58.5263 72.4116L56.2602 70.7831L59.0566 70.7893L59.9152 68.1454ZM49.246 73.8439L48.3874 71.1993L47.5288 73.8439L44.7329 73.8377L46.9985 75.4654L46.1291 78.1062L48.3874 76.4685L50.6457 78.1062L49.7763 75.4654L52.0416 73.8377L49.246 73.8439Z" fill="#FFCC00"/>
<path d="M68.7988 1.59263L5.98251 18.3163C2.67846 19.196 0.717691 22.5703 1.60301 25.8532L10.4196 58.5461C11.3049 61.829 14.701 63.7772 18.0051 62.8975L80.8214 46.1738C84.1255 45.2942 86.0862 41.9198 85.2009 38.6369L76.3844 5.94406C75.499 2.66119 72.1029 0.712993 68.7988 1.59263Z" fill="#9FB5EA"/>
<path d="M6.96777 18.7115H87.4844C90.7683 18.7117 93.4277 21.3568 93.4277 24.6158V73.8463C93.4277 77.1052 90.7683 79.7495 87.4844 79.7496H6.96777C3.68386 79.7495 1.02449 77.1053 1.02441 73.8463V24.6158L1.03223 24.3121C1.19111 21.1939 3.7863 18.7116 6.96777 18.7115Z" fill="#003399" stroke="#1544C5" stroke-width="0.5"/>
<path d="M55.876 49.8082H53.9204V51.8693H52.2427V49.8082H50.2871V48.1672H52.2427V46.0667H53.9204V48.1672H55.876V49.8082Z" fill="white"/>
<path d="M45.3668 43.8875C46.2741 43.8875 47.0011 44.08 47.5469 44.4651C48.0935 44.8502 48.3668 45.4103 48.3668 46.1455V46.4081C48.3668 47.2483 47.8999 47.8784 46.9655 48.2985C47.5562 48.4998 47.9874 48.7711 48.2607 49.1124C48.5425 49.4538 48.6834 49.8739 48.6834 50.3728V50.6354C48.6834 51.4055 48.3753 52.0182 47.7583 52.4733C47.1505 52.9284 46.3275 53.156 45.2878 53.156C44.2748 53.156 43.4556 52.9328 42.8302 52.4864C42.2136 52.0401 41.9053 51.4231 41.9053 50.6354V50.3728C41.9053 49.8651 42.0463 49.4319 42.3281 49.0731C42.61 48.7143 43.0284 48.4429 43.5833 48.2591C43.1253 48.0404 42.7862 47.7865 42.566 47.4977C42.3545 47.2001 42.2489 46.8457 42.2489 46.4343V46.1718C42.2489 45.4454 42.5351 44.8852 43.1077 44.4914C43.689 44.0888 44.4422 43.8875 45.3668 43.8875ZM43.8344 50.6091C43.8344 50.9155 43.9665 51.1518 44.2308 51.318C44.5039 51.4843 44.8782 51.5674 45.3536 51.5674C45.7941 51.5674 46.1379 51.4887 46.3848 51.3311C46.631 51.1736 46.7541 50.9504 46.7541 50.6616V50.3597C46.7541 50.0971 46.6442 49.8783 46.4243 49.7032C46.213 49.5282 45.8824 49.3794 45.4333 49.2569L44.9046 49.1256C44.5875 49.2131 44.3276 49.3575 44.125 49.5588C43.9313 49.7601 43.8344 50.0008 43.8344 50.2809V50.6091ZM44.1647 46.5525C44.1647 46.9463 44.4818 47.2439 45.1159 47.4452L45.5518 47.5765C45.8251 47.4802 46.0411 47.3401 46.1998 47.1564C46.367 46.9638 46.4506 46.7581 46.4506 46.5394V46.2637C46.4506 46.0186 46.3492 45.8304 46.1464 45.6991C45.9443 45.5591 45.6664 45.4891 45.3141 45.4891C44.9619 45.4891 44.68 45.5591 44.4686 45.6991C44.266 45.8392 44.1647 46.0361 44.1647 46.2899V46.5525Z" fill="white"/>
<path d="M34.5674 45.2267C35.0871 45.1917 35.6024 45.0605 36.1133 44.8328C36.6242 44.5965 37.0073 44.3252 37.2628 44.0189H38.822V51.397H41.0153V53.0774H34.6995V51.397H36.8928V46.2245C36.6462 46.382 36.3203 46.5133 35.9151 46.6183C35.5099 46.7233 35.1223 46.7934 34.7523 46.8284L34.5674 45.2267Z" fill="white"/>
<path d="M77.4189 49.2308C77.4189 44.1328 81.5787 40 86.7093 40H94.6231C95.3833 40 95.9996 40.6122 95.9996 41.3675V57.094C95.9996 57.8493 95.3833 58.4615 94.6231 58.4615H86.7093C81.5787 58.4615 77.4189 54.3288 77.4189 49.2308Z" fill="#1544C5"/>
<path opacity="0.35" d="M86.7565 53.7837C89.3219 53.7837 91.4017 51.7174 91.4017 49.1684C91.4017 46.6194 89.3219 44.553 86.7565 44.553C84.191 44.553 82.1113 46.6194 82.1113 49.1684C82.1113 51.7174 84.191 53.7837 86.7565 53.7837Z" fill="white"/>
<path fill-rule="evenodd" clip-rule="evenodd" d="M45.0599 25.3846L45.8117 27.6994L48.2597 27.6941L46.2762 29.1194L47.0372 31.431L45.0599 29.997L43.083 31.431L43.8445 29.1194L41.861 27.6941L44.3089 27.6994L45.0599 25.3846ZM55.9033 30.3733L55.1515 28.0586L54.4006 30.3733L51.9526 30.368L53.9361 31.7933L53.1743 34.1048L55.1515 32.6709L57.1288 34.1048L56.3678 31.7933L58.3513 30.368L55.9033 30.3733ZM62.5521 35.4114L63.3038 37.7262L65.7518 37.7209L63.7683 39.1462L64.5293 41.4577L62.5521 40.0238L60.5748 41.4577L61.3366 39.1462L59.3531 37.7209L61.8011 37.7262L62.5521 35.4114ZM65.9949 47.7529L65.2432 45.4382L64.4922 47.7529L62.0442 47.7476L64.0277 49.1729L63.2659 51.4845L65.2432 50.0506L67.2204 51.4845L66.4586 49.1729L68.4429 47.7476L65.9949 47.7529ZM63.3038 57.7804L62.5521 55.4656L61.8011 57.7804L59.3531 57.7751L61.3366 59.2004L60.5748 61.5119L62.5521 60.078L64.5293 61.5119L63.7683 59.2004L65.7518 57.7751L63.3038 57.7804ZM35.7199 30.3733L34.9686 28.0586L34.2173 30.3733L31.7694 30.368L33.7529 31.7933L32.9913 34.1048L34.9686 32.6709L36.9458 34.1048L36.1843 31.7933L38.1678 30.368L35.7199 30.3733ZM27.5681 35.4114L28.3195 37.7262L30.7673 37.7209L28.7838 39.1462L29.5453 41.4577L27.5681 40.0238L25.5909 41.4577L26.3524 39.1462L24.3689 37.7209L26.8168 37.7262L27.5681 35.4114ZM25.6283 47.7529L24.8769 45.4382L24.1256 47.7529L21.6777 47.7476L23.6612 49.1729L22.8997 51.4845L24.8769 50.0506L26.8541 51.4845L26.0926 49.1729L28.0762 47.7476L25.6283 47.7529ZM27.5681 55.4656L28.3195 57.7804L30.7673 57.7751L28.7838 59.2004L29.5453 61.5119L27.5681 60.078L25.5909 61.5119L26.3524 59.2004L24.3689 57.7751L26.8168 57.7804L27.5681 55.4656ZM35.7199 65.1333L34.9686 62.8185L34.2173 65.1333L31.7694 65.1279L33.7529 66.5533L32.9913 68.8646L34.9686 67.4309L36.9458 68.8646L36.1843 66.5533L38.1678 65.1279L35.7199 65.1333ZM55.1515 62.8185L55.9033 65.1333L58.3513 65.1279L56.3678 66.5533L57.1288 68.8646L55.1515 67.4309L53.1743 68.8646L53.9361 66.5533L51.9526 65.1279L54.4006 65.1333L55.1515 62.8185ZM45.8117 67.8069L45.0599 65.4924L44.3089 67.8069L41.861 67.8016L43.8445 69.227L43.083 71.5385L45.0599 70.1046L47.0372 71.5385L46.2762 69.227L48.2597 67.8016L45.8117 67.8069Z" fill="#FFCC00"/>
</g>
<defs>
<clipPath id="clip0_760_1818">
<rect width="96" height="80" fill="white"/>
</clipPath>
</defs>
</svg>
