<svg width="75" height="74" viewBox="0 0 75 74" fill="none" xmlns="http://www.w3.org/2000/svg">
<g clip-path="url(#clip0_590_2385)">
<mask id="mask0_590_2385" style="mask-type:luminance" maskUnits="userSpaceOnUse" x="1" y="0" width="73" height="74">
<path d="M1.10449 0H73.8955V74H1.10449V0Z" fill="white"/>
</mask>
<g mask="url(#mask0_590_2385)">
<path d="M42.9411 57.5563C51.6232 57.5563 58.6606 50.5189 58.6606 41.8369C58.6606 33.1558 51.6232 26.1174 42.9411 26.1174C34.26 26.1174 27.2217 33.1558 27.2217 41.8369C27.2217 50.5189 34.26 57.5563 42.9411 57.5563Z" fill="#9FB5EA"/>
</g>
<path d="M17.5484 22.0058C17.1488 22.0058 16.8232 21.6811 16.8232 21.2806V17.6537C16.8232 17.2531 17.1488 16.9285 17.5484 16.9285H21.1763C21.5759 16.9285 21.9015 17.2531 21.9015 17.6537C21.9015 18.0533 21.5759 18.3779 21.1763 18.3779H18.2736V21.2806C18.2736 21.6811 17.949 22.0058 17.5484 22.0058Z" fill="#1544C5"/>
<path d="M21.1763 40.1432H17.5484C17.1488 40.1432 16.8232 39.8186 16.8232 39.419V35.7911C16.8232 35.3906 17.1488 35.0659 17.5484 35.0659C17.949 35.0659 18.2736 35.3906 18.2736 35.7911V38.6938H21.1763C21.5759 38.6938 21.9015 39.0184 21.9015 39.419C21.9015 39.8186 21.5759 40.1432 21.1763 40.1432Z" fill="#1544C5"/>
<path d="M39.313 40.1432H35.6852C35.2846 40.1432 34.96 39.8186 34.96 39.419C34.96 39.0184 35.2846 38.6938 35.6852 38.6938H38.5878V35.7911C38.5878 35.3906 38.9125 35.0659 39.313 35.0659C39.7135 35.0659 40.0382 35.3906 40.0382 35.7911V39.419C40.0382 39.8186 39.7135 40.1432 39.313 40.1432Z" fill="#1544C5"/>
<path d="M39.313 22.0058C38.9125 22.0058 38.5878 21.6811 38.5878 21.2806V18.3779H35.6852C35.2846 18.3779 34.96 18.0533 34.96 17.6537C34.96 17.2531 35.2846 16.9285 35.6852 16.9285H39.313C39.7135 16.9285 40.0382 17.2531 40.0382 17.6537V21.2806C40.0382 21.6811 39.7135 22.0058 39.313 22.0058Z" fill="#1544C5"/>
<path d="M22.385 64.3272C21.9845 64.3272 21.6598 64.0025 21.6598 63.602C21.6598 59.8687 21.054 56.6302 19.8589 53.9764C18.9135 51.8776 17.5972 50.1358 15.947 48.8001C13.1239 46.5135 10.2481 46.1888 10.2194 46.1861C9.85037 46.1472 9.56824 45.8355 9.56824 45.4646V30.955C9.56824 29.5731 9.17882 28.4279 8.44159 27.6417C7.81352 26.971 6.96714 26.601 6.06157 26.601C5.15599 26.601 4.30962 26.971 3.68062 27.6417C2.94432 28.4279 2.55397 29.5731 2.55397 30.955V45.4646C2.55397 45.8651 2.22929 46.1898 1.82969 46.1898C1.42917 46.1898 1.10449 45.8651 1.10449 45.4646V30.955C1.10449 29.1984 1.62897 27.7092 2.62334 26.6501C3.52892 25.6834 4.74992 25.1506 6.06157 25.1506C7.37322 25.1506 8.59329 25.6834 9.49979 26.6501C10.4932 27.7092 11.0186 29.1984 11.0186 30.955V44.8504C12.1212 45.077 14.4532 45.7476 16.7925 47.6189C18.6369 49.0952 20.1049 51.0155 21.1557 53.3271C22.4526 56.1798 23.1102 59.6365 23.1102 63.602C23.1102 64.0025 22.7856 64.3272 22.385 64.3272Z" fill="#1544C5"/>
<path d="M40.5229 64.3272H28.4313C28.0307 64.3272 27.7061 64.0017 27.7061 63.6021C27.7061 63.2015 28.0307 62.8768 28.4313 62.8768H40.5229C43.457 62.8768 45.8435 60.4903 45.8435 57.5562V27.3272C45.8435 26.9267 46.1681 26.6021 46.5687 26.6021C46.9692 26.6021 47.2939 26.9267 47.2939 27.3272V57.5562C47.2939 61.2895 44.2562 64.3272 40.5229 64.3272Z" fill="#1544C5"/>
<path d="M11.5015 72.7911C11.137 72.7911 10.8225 72.5173 10.7818 72.1464C10.2398 67.2689 8.22422 65.5345 6.09024 63.6984C3.63899 61.5903 1.10449 59.4092 1.10449 52.7196V49.0926C1.10449 48.6921 1.42917 48.3674 1.82969 48.3674C2.22929 48.3674 2.55397 48.6921 2.55397 49.0926V52.7196C2.55397 55.4455 3.00352 57.561 3.92852 59.1872C4.75084 60.6329 5.86084 61.5885 7.03559 62.5995C8.14097 63.5504 9.28427 64.5337 10.2324 65.9702C11.3017 67.588 11.9529 69.5564 12.223 71.9873C12.2674 72.3851 11.9806 72.744 11.5829 72.7874C11.5561 72.7902 11.5283 72.7921 11.5024 72.7921L11.5015 72.7911Z" fill="#1544C5"/>
<path d="M32.0582 74.0008C31.6577 74.0008 31.333 73.6752 31.333 73.2756C31.333 71.6578 31.7964 70.3609 32.7492 69.3083C33.5613 68.412 34.5881 67.8375 35.5806 67.2816C37.4454 66.2391 38.5878 65.5028 38.5878 63.602C38.5878 63.2024 38.9125 62.8777 39.313 62.8777C39.7135 62.8777 40.0382 63.2024 40.0382 63.602C40.0382 66.45 38.0457 67.5647 36.2892 68.5479C34.4077 69.6006 32.7834 70.5089 32.7834 73.2756C32.7834 73.6761 32.4578 74.0008 32.0582 74.0008Z" fill="#1544C5"/>
<path d="M10.2936 24.4247C9.89303 24.4247 9.56836 24.1 9.56836 23.6995V10.398C9.56836 6.66471 12.6061 3.62793 16.3394 3.62793H35.6857C36.0863 3.62793 36.4109 3.9526 36.4109 4.35313C36.4109 4.75273 36.0863 5.0774 35.6857 5.0774H16.3394C13.4053 5.0774 11.0188 7.46483 11.0188 10.398V23.6995C11.0188 24.0991 10.6941 24.4238 10.2936 24.4238V24.4247Z" fill="#1544C5"/>
<path d="M46.5679 24.4247C46.1683 24.4247 45.8436 24.1 45.8436 23.6995V10.398C45.8436 7.46483 43.4562 5.0774 40.5221 5.0774H39.3131C38.9126 5.0774 38.5879 4.75273 38.5879 4.35313C38.5879 3.9526 38.9126 3.62793 39.3131 3.62793H40.5221C44.2563 3.62793 47.2931 6.66471 47.2931 10.398V23.6995C47.2931 24.0991 46.9684 24.4238 46.5679 24.4238V24.4247Z" fill="#1544C5"/>
<path d="M67.1243 57.0715H50.1959C49.7954 57.0715 49.4707 56.7469 49.4707 56.3473C49.4707 55.9467 49.7954 55.6221 50.1959 55.6221H67.1243C70.0584 55.6221 72.4449 53.2346 72.4449 50.3015V15.2347C72.4449 14.8351 72.7696 14.5095 73.1701 14.5095C73.5697 14.5095 73.8953 14.8351 73.8953 15.2347V50.3005C73.8953 54.0338 70.8576 57.0715 67.1243 57.0715Z" fill="#1544C5"/>
<path d="M73.1701 12.333C72.7696 12.333 72.4449 12.0074 72.4449 11.6078V6.771C72.4449 3.8369 70.0584 1.4504 67.1243 1.4504H48.9869C48.5864 1.4504 48.2617 1.1248 48.2617 0.7252C48.2617 0.324675 48.5864 0 48.9869 0H67.1243C70.8576 0 73.8944 3.0377 73.8944 6.771V11.6078C73.8944 12.0074 73.5697 12.333 73.1701 12.333Z" fill="#1544C5"/>
<path d="M61.0787 22.0058H58.6607C58.2602 22.0058 57.9355 21.6811 57.9355 21.2806V18.8627C57.9355 18.4621 58.2602 18.1375 58.6607 18.1375H61.0787C61.4792 18.1375 61.8039 18.4621 61.8039 18.8627V21.2806C61.8039 21.6811 61.4792 22.0058 61.0787 22.0058ZM59.385 20.5563H60.3526V19.5879H59.385V20.5563Z" fill="#1544C5"/>
<path d="M53.8238 26.8435C53.4233 26.8435 53.0986 26.5179 53.0986 26.1183V24.9084C53.0986 24.5088 53.4233 24.1841 53.8238 24.1841C54.2234 24.1841 54.5481 24.5088 54.5481 24.9084V26.1183C54.5481 26.5179 54.2234 26.8435 53.8238 26.8435Z" fill="#1544C5"/>
<path d="M59.8697 29.2614C59.4692 29.2614 59.1445 28.9368 59.1445 28.5362V27.3272C59.1445 26.9267 59.4692 26.6021 59.8697 26.6021H61.0787C61.4792 26.6021 61.8039 26.9267 61.8039 27.3272C61.8039 27.7268 61.4792 28.0515 61.0787 28.0515H60.594V28.5362C60.594 28.9368 60.2693 29.2614 59.8697 29.2614Z" fill="#1544C5"/>
<path d="M61.0787 25.6335C60.6782 25.6335 60.3535 25.3088 60.3535 24.9083V23.6993C60.3535 23.2988 60.6782 22.9741 61.0787 22.9741C61.4792 22.9741 61.8039 23.2988 61.8039 23.6993V24.9083C61.8039 25.3088 61.4792 25.6335 61.0787 25.6335Z" fill="#1544C5"/>
<path d="M56.2418 23.2155C55.8413 23.2155 55.5166 22.8909 55.5166 22.4903V21.2814C55.5166 20.8808 55.8413 20.5562 56.2418 20.5562C56.6414 20.5562 56.967 20.8808 56.967 21.2814V22.4903C56.967 22.8909 56.6414 23.2155 56.2418 23.2155Z" fill="#1544C5"/>
<path d="M55.0318 31.6795H53.8229C53.4223 31.6795 53.0977 31.3548 53.0977 30.9552C53.0977 30.5547 53.4223 30.23 53.8229 30.23H55.0318C55.4324 30.23 55.757 30.5547 55.757 30.9552C55.757 31.3548 55.4324 31.6795 55.0318 31.6795Z" fill="#1544C5"/>
<path d="M56.2418 29.2614H53.8238C53.4233 29.2614 53.0986 28.9368 53.0986 28.5362C53.0986 28.1357 53.4233 27.811 53.8238 27.811H55.5166V27.3272C55.5166 26.9267 55.8413 26.6021 56.2418 26.6021C56.6414 26.6021 56.967 26.9267 56.967 27.3272V28.5362C56.967 28.9368 56.6414 29.2614 56.2418 29.2614Z" fill="#1544C5"/>
<path d="M58.6598 25.6335H56.2418C55.8413 25.6335 55.5166 25.3088 55.5166 24.9083C55.5166 24.5078 55.8413 24.1831 56.2418 24.1831H57.9346V23.6993C57.9346 23.2988 58.2592 22.9741 58.6598 22.9741C59.0603 22.9741 59.385 23.2988 59.385 23.6993V24.9083C59.385 25.3088 59.0603 25.6335 58.6598 25.6335Z" fill="#1544C5"/>
<path d="M61.0787 31.6795H59.8697C59.4692 31.6795 59.1445 31.3548 59.1445 30.9552C59.1445 30.5547 59.4692 30.23 59.8697 30.23H61.0787C61.4792 30.23 61.8039 30.5547 61.8039 30.9552C61.8039 31.3548 61.4792 31.6795 61.0787 31.6795Z" fill="#1544C5"/>
<path d="M57.4508 31.6794C57.0512 31.6794 56.7266 31.3547 56.7266 30.9542V29.7452C56.7266 29.3447 57.0512 29.02 57.4508 29.02C57.8514 29.02 58.176 29.3447 58.176 29.7452V30.9542C58.176 31.3547 57.8514 31.6794 57.4508 31.6794Z" fill="#1544C5"/>
<path d="M53.8238 20.7968C53.4233 20.7968 53.0986 20.4722 53.0986 20.0726V18.8627C53.0986 18.4621 53.4233 18.1375 53.8238 18.1375C54.2234 18.1375 54.5481 18.4621 54.5481 18.8627V20.0726C54.5481 20.4722 54.2234 20.7968 53.8238 20.7968Z" fill="#1544C5"/>
<path d="M64.7055 35.3072H51.4049C51.0053 35.3072 50.6807 34.9825 50.6807 34.582C50.6807 34.1815 51.0053 33.8568 51.4049 33.8568H63.9812V15.9599H51.4049C51.0053 15.9599 50.6807 15.6352 50.6807 15.2347C50.6807 14.8351 51.0053 14.5095 51.4049 14.5095H64.7055C65.106 14.5095 65.4307 14.8351 65.4307 15.2347V34.582C65.4307 34.9825 65.106 35.3072 64.7055 35.3072Z" fill="#1544C5"/>
<path d="M73.1691 51.0259H50.1949C49.7944 51.0259 49.4697 50.7012 49.4697 50.3016C49.4697 49.9011 49.7944 49.5764 50.1949 49.5764H73.1691C73.5697 49.5764 73.8944 49.9011 73.8944 50.3016C73.8944 50.7012 73.5697 51.0259 73.1691 51.0259Z" fill="#1544C5"/>
</g>
<defs>
<clipPath id="clip0_590_2385">
<rect width="74" height="74" fill="white" transform="translate(0.5)"/>
</clipPath>
</defs>
</svg>
