<svg width="24" height="24" viewBox="0 0 24 24" fill="none" xmlns="http://www.w3.org/2000/svg">
<path fill-rule="evenodd" clip-rule="evenodd" d="M12.001 3.5C11.31 3.5 10.751 4.059 10.751 4.75C10.751 5.441 11.31 6 12.001 6C12.691 6 13.251 5.441 13.251 4.75C13.251 4.059 12.691 3.5 12.001 3.5ZM2.00098 7V5.566L12.001 2.088L22.001 5.566V7H2.00098ZM17.001 17H20.001V8.5H17.001V17ZM10.501 17H13.501V8.5H10.501V17ZM4.00098 17H7.00098V8.5H4.00098V17ZM22.001 20V20.5H2.00098V20C2.00098 19.173 2.67398 18.5 3.50098 18.5H20.501C21.328 18.5 22.001 19.173 22.001 20ZM23.501 8.5V4.5L12.001 0.5L0.500977 4.5V8.5H2.50098V17.174C1.33598 17.587 0.500977 18.695 0.500977 20V22H23.501V20C23.501 18.695 22.665 17.587 21.501 17.174V8.5H23.501Z" fill="#1544C5"/>
</svg>
