<svg width="64" height="61" viewBox="0 0 64 61" fill="none" xmlns="http://www.w3.org/2000/svg">
<g clip-path="url(#clip0_1543_1406)">
<path d="M26.6667 61C41.3943 61 53.3333 49.1258 53.3333 34.4783C53.3333 19.8307 41.3943 7.95654 26.6667 7.95654C11.9391 7.95654 0 19.8307 0 34.4783C0 49.1258 11.9391 61 26.6667 61Z" fill="#9FB5EA"/>
<path d="M40.3403 36.6166H37.8144V39.2815H35.647V36.6166H33.1211V34.4949H35.647V31.7791H37.8144V34.4949H40.3403V36.6166Z" fill="#003399"/>
<path d="M26.7663 28.9614C27.9385 28.9614 28.8772 29.2104 29.5823 29.7083C30.2879 30.2062 30.6404 30.9304 30.6404 31.8809V32.2204C30.6404 33.3067 30.0377 34.1215 28.8313 34.6647C29.594 34.9249 30.1513 35.2757 30.5039 35.717C30.8681 36.1584 31.05 36.7015 31.05 37.3465V37.686C31.05 38.6818 30.6521 39.474 29.8553 40.0624C29.0703 40.6508 28.0068 40.945 26.6639 40.945C25.3556 40.945 24.2975 40.6564 23.4896 40.0793C22.6932 39.5022 22.2949 38.7044 22.2949 37.686V37.3465C22.2949 36.6902 22.477 36.1301 22.8411 35.6661C23.2052 35.2021 23.7456 34.8514 24.4623 34.6137C23.8708 34.3309 23.4327 34.0027 23.1483 33.6292C22.8752 33.2445 22.7387 32.7862 22.7387 32.2544V31.9149C22.7387 30.9756 23.1085 30.2514 23.848 29.7422C24.5988 29.2217 25.5716 28.9614 26.7663 28.9614ZM24.7865 37.6521C24.7865 38.0481 24.9572 38.3537 25.2985 38.5687C25.6516 38.7836 26.1348 38.8912 26.7492 38.8912C27.3183 38.8912 27.762 38.7893 28.0804 38.5856C28.3993 38.3819 28.5583 38.0934 28.5583 37.72V37.3296C28.5583 36.9901 28.4164 36.7072 28.1316 36.4809C27.8585 36.2545 27.4319 36.0622 26.8516 35.9038L26.1689 35.734C25.7593 35.8472 25.4239 36.0339 25.162 36.2942C24.9119 36.5544 24.7865 36.8656 24.7865 37.2277V37.6521ZM25.2132 32.4071C25.2132 32.9163 25.6228 33.3011 26.442 33.5614L27.0052 33.7311C27.3583 33.6066 27.6367 33.4256 27.8415 33.1879C28.058 32.939 28.1657 32.673 28.1657 32.3902V32.0337C28.1657 31.7169 28.0351 31.4736 27.7732 31.3038C27.5119 31.1228 27.1535 31.0322 26.698 31.0322C26.2431 31.0322 25.8788 31.1228 25.6057 31.3038C25.3444 31.4849 25.2132 31.7395 25.2132 32.0676V32.4071Z" fill="#003399"/>
<path d="M12.8164 30.6929C13.4877 30.6477 14.1533 30.478 14.8132 30.1837C15.4731 29.8782 15.968 29.5274 16.298 29.1313H18.3119V38.6707H21.1449V40.8433H12.9871V38.6707H15.8201V31.983C15.5016 32.1867 15.0806 32.3564 14.5572 32.4922C14.0338 32.628 13.5332 32.7185 13.0553 32.7638L12.8164 30.6929Z" fill="#003399"/>
<path d="M38.4004 12.7304C38.4004 5.69963 44.1311 0 51.2004 0C58.2697 0 64.0004 5.69963 64.0004 12.7304C64.0004 19.7612 58.2697 25.4609 51.2004 25.4609H44.3849C41.1311 25.4609 39.0655 25.4609 38.4004 25.4609C38.4004 24.7995 38.4004 22.8827 38.4004 19.6743V12.7304Z" fill="#1544C5"/>
<path d="M48.6525 16.627C48.6301 16.6492 48.5992 16.6617 48.5672 16.6617C48.5357 16.6617 48.5048 16.6492 48.4824 16.627L45.516 13.6942L44.8008 14.4093L47.7672 17.3421C47.98 17.5516 48.268 17.6691 48.5672 17.6691C48.8669 17.6691 49.1544 17.5516 49.3677 17.3421L57.6008 9.20219L56.8856 8.48706L48.6525 16.627Z" fill="white"/>
</g>
<defs>
<clipPath id="clip0_1543_1406">
<rect width="64" height="61" fill="white"/>
</clipPath>
</defs>
</svg>
