<svg width="20" height="20" viewBox="0 0 20 20" fill="none" xmlns="http://www.w3.org/2000/svg">
<path d="M0 4C0 1.79086 1.79086 0 4 0H16C18.2091 0 20 1.79086 20 4V16C20 18.2091 18.2091 20 16 20H4C1.79086 20 0 18.2091 0 16V4Z" fill="#1544C5"/>
<g clip-path="url(#clip0_1487_275)">
<path d="M8.42911 14.987L4.22411 10.87C4.15348 10.801 4.09735 10.7185 4.05904 10.6275C4.02072 10.5365 4.00098 10.4387 4.00098 10.34C4.00098 10.2412 4.02072 10.1435 4.05904 10.0524C4.09735 9.96143 4.15348 9.87899 4.22411 9.80998C4.36817 9.66913 4.56164 9.59027 4.76311 9.59027C4.96459 9.59027 5.15806 9.66913 5.30211 9.80998L8.42611 12.87L15.1851 6.21898C15.3292 6.07813 15.5226 5.99927 15.7241 5.99927C15.9256 5.99927 16.1191 6.07813 16.2631 6.21898C16.3337 6.28799 16.3899 6.37043 16.4282 6.46145C16.4665 6.55247 16.4863 6.65022 16.4863 6.74898C16.4863 6.84773 16.4665 6.94549 16.4282 7.03651C16.3899 7.12752 16.3337 7.20996 16.2631 7.27898L8.42911 14.987Z" fill="white"/>
</g>
<defs>
<clipPath id="clip0_1487_275">
<rect width="12.486" height="8.987" fill="white" transform="translate(4 6)"/>
</clipPath>
</defs>
</svg>
