<svg width="10" height="10" viewBox="0 0 10 10" fill="none" xmlns="http://www.w3.org/2000/svg">
<path fill-rule="evenodd" clip-rule="evenodd" d="M4.99935 0.416748L8.95768 1.29175V4.62508C8.95768 5.89591 8.49935 7.10425 7.70768 8.04175C6.95471 8.96585 6.08927 9.41202 5.4116 9.65736L5.23928 9.71699L5.07665 9.76861C5.05042 9.7766 5.02465 9.78431 4.99935 9.79175L4.88801 9.7624L4.79248 9.7347L4.62057 9.67905C4.57884 9.66465 4.53485 9.64883 4.48884 9.63147L4.34495 9.57462C3.82166 9.35855 3.09973 8.95841 2.43685 8.22925C1.5955 7.30777 1.0816 6.09738 1.04332 4.80178L1.04102 4.64591V1.31258L4.99935 0.416748ZM4.99935 1.04175L1.66602 1.81258V4.64591C1.66602 6.70841 3.04102 8.54175 4.99935 9.14592C6.91852 8.55383 8.27745 6.78126 8.33104 4.76938L8.33268 4.64591V1.81258L4.99935 1.04175ZM6.37435 3.72925C6.49935 3.60425 6.68685 3.60425 6.81185 3.72925C6.92549 3.84288 6.93582 4.00817 6.84284 4.1312L6.81185 4.16675L4.70768 6.27091L3.39518 4.95841C3.27018 4.83341 3.27018 4.64591 3.39518 4.52091C3.50882 4.40728 3.67411 4.39695 3.79714 4.48992L3.83268 4.52091L4.72852 5.37508L6.37435 3.72925Z" fill="#555555"/>
</svg>
